#!OML:ASF F:\VICON\USERDATA\INSTALL\rory3\rory3.ASF
:FULLY-SPECIFIED
:DEGREES
407
root 4.71278 16.443 2.4024 12.0842 -12.8865 -2.65659
lowerback 5.78443 -0.0785477 0.94706
upperback 1.50067 -0.0595015 -0.342234
thorax -1.69957 -0.0338924 -0.878831
lowerneck -12.8419 0.20135 -0.894051
upperneck 38.8209 0.839441 -1.22391
head 15.9374 -0.0313543 -0.252043
rclavicle -2.0276e-014 1.55052e-014
rhumerus -29.1916 30.5906 -69.0445
rradius 97.4408
rwrist -22.9137
rhand -7.14808 -38.4824
rfingers 7.12502
rthumb 18.7284 -67.6008
lclavicle -2.0276e-014 1.55052e-014
lhumerus -16.4991 -36.8515 65.0317
lradius 87.0706
lwrist 50.5071
lhand -21.5532 -27.8699
lfingers 7.12502
lthumb 4.84019 2.05486
rfemur -61.2966 5.62673 15.7253
rtibia 33.3968
rfoot 39.0098 2.42888
rtoes 4.52327
lfemur -37.066 -0.0810914 -27.5213
ltibia 49.5037
lfoot -21.9265 9.23299
ltoes 9.65758
408
root 4.70997 16.4439 2.40237 12.2731 -12.7361 -2.83782
lowerback 5.64875 -0.0902597 1.15246
upperback 1.43264 -0.0625791 -0.267405
thorax -1.69397 -0.0361507 -0.917038
lowerneck -12.7372 0.206458 -0.944437
upperneck 38.9939 0.836001 -1.15922
head 16.0007 -0.032799 -0.216877
rclavicle -2.29596e-014 1.74931e-014
rhumerus -29.9102 30.5468 -69.2942
rradius 97.544
rwrist -22.8132
rhand -7.03768 -38.336
rfingers 7.12502
rthumb 18.8346 -67.4442
lclavicle -2.29596e-014 1.74931e-014
lhumerus -16.8163 -37.2533 65.3207
lradius 86.8082
lwrist 50.4299
lhand -21.4586 -27.6486
lfingers 7.12502
lthumb 4.93156 2.27403
rfemur -61.4076 5.7671 15.8346
rtibia 33.3459
rfoot 39.1173 2.16055
rtoes 5.22003
lfemur -37.3197 -0.154015 -27.3075
ltibia 49.6137
lfoot -21.9136 9.26064
ltoes 13.6428
409
root 4.71059 16.4485 2.40425 12.3455 -12.7365 -2.88559
lowerback 5.53839 -0.0831917 1.25068
upperback 1.42281 -0.0486242 -0.255314
thorax -1.64222 -0.0291544 -0.960725
lowerneck -12.5659 0.262532 -1.02831
upperneck 39.0563 0.90852 -1.07138
head 15.9902 -0.0032724 -0.152027
rclavicle 5.64548e-014 -2.42517e-014
rhumerus -30.4969 30.56 -69.5191
rradius 97.5868
rwrist -22.7629
rhand -8.39356 -37.464
rfingers 7.12502
rthumb 17.5301 -66.6936
lclavicle 5.64548e-014 -2.42517e-014
lhumerus -17.1427 -37.5318 65.5857
lradius 86.5577
lwrist 50.279
lhand -21.347 -27.6537
lfingers 7.12502
lthumb 5.03932 2.26639
rfemur -61.4662 5.84812 15.9415
rtibia 33.3236
rfoot 39.0885 2.38902
rtoes 5.1912
lfemur -37.4091 -0.156143 -27.2681
ltibia 49.7124
lfoot -22.0494 9.27514
ltoes 11.2123
410
root 4.70515 16.4315 2.38279 12.7568 -12.3798 -2.86619
lowerback 5.49414 -0.200442 1.22803
upperback 1.26172 -0.204132 -0.208057
thorax -1.78687 -0.108118 -0.88867
lowerneck -12.6445 0.262159 -1.19351
upperneck 39.0944 0.8881 -0.887918
head 16.027 -0.0117571 -0.0461782
rclavicle -5.46658e-015 -1.98785e-015
rhumerus -30.8082 30.6104 -69.7067
rradius 97.4634
rwrist -22.8216
rhand -8.01476 -38.2906
rfingers 7.12502
rthumb 17.8946 -67.4873
lclavicle -5.46658e-015 -1.98785e-015
lhumerus -17.509 -37.6799 65.8475
lradius 86.4328
lwrist 50.2128
lhand -21.863 -26.9
lfingers 7.12502
lthumb 4.5411 3.03129
rfemur -62.0697 5.71263 15.9036
rtibia 33.4102
rfoot 38.9993 2.43589
rtoes 4.73992
lfemur -38.0804 -0.380075 -27.2486
ltibia 49.9066
lfoot -21.9648 9.2059
ltoes 12.0933
411
root 4.70338 16.431 2.38417 12.8079 -12.382 -2.93985
lowerback 5.55128 -0.187548 1.30925
upperback 1.33159 -0.182183 -0.208753
thorax -1.74663 -0.0969425 -0.936476
lowerneck -12.9487 0.23194 -1.23867
upperneck 39.1569 0.834692 -0.810263
head 16.1338 -0.0310535 -0.0130459
rclavicle 6.55989e-015 -9.54166e-015
rhumerus -30.9842 30.5202 -69.8745
rradius 97.3248
rwrist -22.8131
rhand -8.15521 -38.7666
rfingers 7.12502
rthumb 17.7595 -67.9756
lclavicle 6.55989e-015 -9.54166e-015
lhumerus -17.6304 -37.8686 65.9525
lradius 86.3056
lwrist 50.1415
lhand -21.4186 -26.8948
lfingers 7.12502
lthumb 4.97013 3.02692
rfemur -62.1766 5.79602 16.0528
rtibia 33.5292
rfoot 38.9051 2.4339
rtoes 5.09561
lfemur -38.1722 -0.256298 -27.2219
ltibia 50.021
lfoot -21.9532 9.23216
ltoes 12.7672
412
root 4.70064 16.4306 2.38728 12.8073 -12.3447 -2.99299
lowerback 5.50203 -0.159203 1.41839
upperback 1.46156 -0.140598 -0.232835
thorax -1.58477 -0.0747951 -1.02554
lowerneck -13.1268 0.188821 -1.1616
upperneck 39.1863 0.780199 -0.880979
head 16.1942 -0.0518088 -0.0668005
rclavicle -3.6477e-014 3.45885e-014
rhumerus -31.2082 30.3071 -70.0448
rradius 97.1696
rwrist -22.6338
rhand -8.20046 -38.7434
rfingers 7.12502
rthumb 17.7159 -67.9563
lclavicle -3.6477e-014 3.45885e-014
lhumerus -17.5689 -38.1737 65.9593
lradius 86.0669
lwrist 49.9717
lhand -21.256 -26.6871
lfingers 7.12502
lthumb 5.12713 3.23091
rfemur -62.209 5.88036 16.144
rtibia 33.672
rfoot 38.8972 2.00194
rtoes 6.37257
lfemur -38.1769 -0.192325 -27.1732
ltibia 50.1016
lfoot -22.0539 9.05418
ltoes 11.8486
413
root 4.69564 16.4253 2.38683 12.7572 -12.2946 -2.8676
lowerback 5.47385 -0.117872 1.33319
upperback 1.57202 -0.0926024 -0.287555
thorax -1.45419 -0.0492209 -1.03723
lowerneck -13.0874 0.122001 -1.15221
upperneck 39.0644 0.689189 -0.910341
head 16.1209 -0.0893808 -0.095735
rclavicle 7.65321e-015 -1.74931e-014
rhumerus -31.4965 30.08 -70.2174
rradius 96.9401
rwrist -22.4081
rhand -8.5861 -38.1908
rfingers 7.12502
rthumb 17.3448 -67.4368
lclavicle 7.65321e-015 -1.74931e-014
lhumerus -17.7265 -38.508 66.1389
lradius 85.8825
lwrist 49.6545
lhand -21.5332 -26.7194
lfingers 7.12502
lthumb 4.85953 3.20489
rfemur -62.2591 5.99077 15.9926
rtibia 33.7849
rfoot 38.9498 3.23929
rtoes 4.46541
lfemur -38.1439 -0.177837 -27.2998
ltibia 50.107
lfoot -22.1335 8.94588
ltoes 10.4745
414
root 4.6907 16.4296 2.38649 12.6872 -12.1479 -2.6613
lowerback 5.54181 -0.130522 1.13976
upperback 1.63406 -0.120443 -0.337899
thorax -1.42891 -0.0624157 -0.978483
lowerneck -12.923 0.0937222 -1.19858
upperneck 38.8578 0.658149 -0.909321
head 15.9728 -0.105301 -0.090659
rclavicle -1.05356e-014 -7.55382e-015
rhumerus -31.8691 29.9302 -70.4216
rradius 96.7545
rwrist -22.1984
rhand -7.21791 -40.6589
rfingers 7.12502
rthumb 18.6612 -69.7838
lclavicle -1.05356e-014 -7.55382e-015
lhumerus -18.184 -38.7569 66.4731
lradius 85.7985
lwrist 49.1393
lhand -21.9316 -27.0316
lfingers 7.12502
lthumb 4.47477 2.9011
rfemur -62.2854 6.04819 15.7327
rtibia 33.8882
rfoot 38.9518 3.0928
rtoes 4.7332
lfemur -38.0803 -0.253397 -27.4989
ltibia 50.0844
lfoot -22.0312 8.95384
ltoes 10.337
415
root 4.68367 16.4311 2.38074 12.7072 -11.9757 -2.60999
lowerback 5.73036 -0.181694 1.01184
upperback 1.60621 -0.193083 -0.31504
thorax -1.56402 -0.0993891 -0.877936
lowerneck -12.8094 0.125434 -1.09021
upperneck 38.7812 0.749745 -1.11078
head 15.9074 -0.0775342 -0.181434
rclavicle -9.34288e-015 -9.14409e-015
rhumerus -32.4358 29.8625 -70.6846
rradius 96.7521
rwrist -21.9264
rhand -6.07327 -42.3348
rfingers 7.12502
rthumb 19.7619 -71.3502
lclavicle -9.34288e-015 -9.14409e-015
lhumerus -18.7744 -38.931 66.842
lradius 85.7263
lwrist 48.6582
lhand -22.0985 -27.6059
lfingers 7.12502
lthumb 4.31364 2.33013
rfemur -62.3936 6.1731 15.5894
rtibia 34.006
rfoot 38.8912 2.69601
rtoes 4.98403
lfemur -38.1376 -0.28028 -27.5168
ltibia 50.0923
lfoot -21.896 8.85762
ltoes 10.6924
416
root 4.67333 16.4201 2.36966 12.8035 -11.764 -2.54972
lowerback 5.95882 -0.258633 0.828311
upperback 1.51303 -0.302906 -0.278292
thorax -1.78856 -0.155095 -0.728447
lowerneck -12.8668 0.16431 -1.01298
upperneck 38.8922 0.824644 -1.20775
head 15.9802 -0.0500056 -0.22573
rclavicle 2.65378e-014 -1.59028e-015
rhumerus -33.0163 29.876 -70.9904
rradius 96.7179
rwrist -21.6706
rhand -5.85132 -42.1942
rfingers 7.12502
rthumb 19.9753 -71.1875
lclavicle 2.65378e-014 -1.59028e-015
lhumerus -19.3689 -39.0809 67.179
lradius 85.6444
lwrist 48.4194
lhand -21.828 -27.6936
lfingers 7.12502
lthumb 4.57486 2.23699
rfemur -62.6455 6.31737 15.3638
rtibia 34.1251
rfoot 38.78 2.08333
rtoes 5.20578
lfemur -38.369 -0.277823 -27.5298
ltibia 50.161
lfoot -21.8735 8.633
ltoes 10.7419
417
root 4.66738 16.4128 2.36366 12.9314 -11.3312 -2.36384
lowerback 5.98386 -0.397934 0.711395
upperback 1.4535 -0.495288 -0.310588
thorax -1.86669 -0.250974 -0.681362
lowerneck -13.032 0.179473 -1.01274
upperneck 39.0869 0.810755 -1.10113
head 16.1211 -0.0438602 -0.183292
rclavicle -1.51076e-014 -9.93923e-015
rhumerus -33.4368 29.8721 -71.2686
rradius 96.5382
rwrist -21.5415
rhand -5.84657 -42.449
rfingers 7.12502
rthumb 19.9798 -71.4418
lclavicle -1.51076e-014 -9.93923e-015
lhumerus -19.7066 -39.3292 67.3386
lradius 85.407
lwrist 48.2613
lhand -21.254 -27.4709
lfingers 7.12502
lthumb 5.12914 2.44702
rfemur -62.8519 6.0522 15.1641
rtibia 34.1577
rfoot 38.7362 1.74428
rtoes 5.18713
lfemur -38.6243 -0.459177 -27.6698
ltibia 50.262
lfoot -21.9096 8.32721
ltoes 10.8337
418
root 4.66444 16.4166 2.35172 13.1303 -10.7955 -2.34735
lowerback 6.00728 -0.520584 0.870343
upperback 1.41412 -0.64861 -0.334724
thorax -1.92487 -0.328285 -0.78347
lowerneck -13.1284 0.116771 -0.980181
upperneck 39.1514 0.674556 -1.01144
head 16.1776 -0.0833331 -0.173439
rclavicle 1.45113e-014 -3.97569e-016
rhumerus -33.8608 29.6804 -71.5066
rradius 96.4326
rwrist -21.428
rhand -5.53874 -43.3636
rfingers 7.12502
rthumb 20.2757 -72.3253
lclavicle 1.45113e-014 -3.97569e-016
lhumerus -19.6962 -39.7789 67.3029
lradius 85.0799
lwrist 48.2369
lhand -20.9845 -27.7769
lfingers 7.12502
lthumb 5.38928 2.13456
rfemur -63.0175 5.61028 15.2797
rtibia 34.1564
rfoot 38.8337 1.84354
rtoes 5.15126
lfemur -39.0112 -0.679987 -27.5948
ltibia 50.4273
lfoot -21.9468 7.78286
ltoes 11.6183
419
root 4.66381 16.4247 2.35173 13.2885 -10.8569 -2.63908
lowerback 5.9466 -0.433827 1.20788
upperback 1.43359 -0.513022 -0.318116
thorax -1.87095 -0.26173 -0.966662
lowerneck -13.0204 -0.00722398 -1.16575
upperneck 39.0402 0.44701 -0.76856
head 16.0906 -0.169659 -0.0718107
rclavicle 2.0276e-014 -1.55052e-014
rhumerus -34.2768 29.5378 -71.7335
rradius 96.3299
rwrist -21.3005
rhand -5.69927 -42.9484
rfingers 7.12502
rthumb 20.1214 -71.9264
lclavicle 2.0276e-014 -1.55052e-014
lhumerus -19.8159 -40.2389 67.3401
lradius 84.9017
lwrist 48.4493
lhand -21.1371 -28.2284
lfingers 7.12502
lthumb 5.242 1.68679
rfemur -63.0906 5.72922 15.6863
rtibia 34.077
rfoot 39.0175 2.04114
rtoes 5.26844
lfemur -39.2763 -0.408855 -27.3009
ltibia 50.586
lfoot -22.0547 7.31273
ltoes 12.8887
